<?xml version="1.0" encoding="iso-8859-1"?>
<!-- Uploaded to: SVG Repo, www.svgrepo.com, Generator: SVG Repo Mixer Tools -->
<svg fill="#000000" height="800px" width="800px" version="1.1" id="Layer_1" xmlns="http://www.w3.org/2000/svg" xmlns:xlink="http://www.w3.org/1999/xlink" 
	 viewBox="0 0 512 512" xml:space="preserve">
<g>
	<g>
		<path d="M473.84,99.265V0H38.16v99.265h31.357v54.262c-7.492,8.391-12.048,19.435-12.048,31.535
			c0,26.154,21.274,47.417,47.417,47.417c5.632,0,11.045-0.993,16.07-2.811V512h270.085V229.669
			c5.026,1.818,10.439,2.811,16.071,2.811c26.143,0,47.417-21.264,47.417-47.417c0-12.1-4.556-23.144-12.048-31.535V99.265H473.84z
			 M104.887,201.132c-8.861,0-16.07-7.21-16.07-16.071c0-8.861,7.21-16.071,16.07-16.071c8.861,0,16.071,7.21,16.071,16.071
			C120.957,193.923,113.748,201.132,104.887,201.132z M234.057,480.653h-48.065V249.438c0-13.27,10.762-24.033,24.033-24.033
			c6.635,0,12.643,2.696,16.99,7.043c4.347,4.347,7.043,10.355,7.043,16.99V480.653z M326.708,480.653h-48.065V249.438
			c0-13.27,10.752-24.033,24.033-24.033c6.635,0,12.643,2.696,16.99,7.043c4.357,4.347,7.043,10.355,7.043,16.99V480.653z
			 M120.957,137.644h-16.07h-4.023V99.265h310.272v38.379h-4.023h-16.071H120.957z M407.113,201.132
			c-8.861,0-16.071-7.21-16.071-16.071c0-8.861,7.21-16.071,16.071-16.071c8.861,0,16.07,7.21,16.07,16.071
			C423.184,193.923,415.974,201.132,407.113,201.132z"/>
	</g>
</g>
</svg>